<svg width="201" height="25" viewBox="0 0 201 25" fill="none" xmlns="http://www.w3.org/2000/svg">
<path d="M26.44 2H37.55C41.11 2 42 2.89 42 6.44V12.77C42 16.33 41.11 17.21 37.56 17.21H26.44C22.89 17.22 22 16.33 22 12.78V6.44C22 2.89 22.89 2 26.44 2Z" stroke="#150578" stroke-width="1.5" stroke-linecap="round" stroke-linejoin="round"/>
<path d="M32 17.22V22" stroke="#150578" stroke-width="1.5" stroke-linecap="round" stroke-linejoin="round"/>
<path d="M22 13H42" stroke="#150578" stroke-width="1.5" stroke-linecap="round" stroke-linejoin="round"/>
<path d="M27.5 22H36.5" stroke="#150578" stroke-width="1.5" stroke-linecap="round" stroke-linejoin="round"/>
<path d="M55.02 20V5.8H60.16C64.08 5.8 67.02 8.72 67.02 12.9C67.02 17.08 64.08 20 60.16 20H55.02ZM57.76 17.42H60.06C62.76 17.42 64.16 15.58 64.16 12.9C64.16 10.22 62.76 8.38 60.06 8.38H57.76V17.42ZM73.1333 20.2C70.7133 20.2 68.1333 18.4 68.1333 14.8C68.1333 11.2 70.7133 9.4 73.1333 9.4C74.9933 9.4 76.1933 10.42 76.4533 11H76.5133V9.6H79.1933V20H76.5133V18.6H76.4533C76.1933 19.18 74.9933 20.2 73.1333 20.2ZM70.7733 14.8C70.7733 16.74 72.1733 17.8 73.6733 17.8C75.1733 17.8 76.5733 16.76 76.5733 14.8C76.5733 12.84 75.1733 11.8 73.6733 11.8C72.1733 11.8 70.7733 12.86 70.7733 14.8ZM85.2509 20.12C83.4909 20.12 82.2109 19.26 82.2109 17.12V11.74H80.7309V9.6H82.2109V6.94H84.9109V9.6H87.0509V11.74H84.9109V16.68C84.9109 17.22 85.2109 17.74 86.0909 17.74C86.3309 17.74 86.6909 17.7 87.0709 17.58V19.64C86.6709 20 85.9109 20.12 85.2509 20.12ZM93.0942 20.2C90.6742 20.2 88.0942 18.4 88.0942 14.8C88.0942 11.2 90.6742 9.4 93.0942 9.4C94.9542 9.4 96.1542 10.42 96.4142 11H96.4742V9.6H99.1542V20H96.4742V18.6H96.4142C96.1542 19.18 94.9542 20.2 93.0942 20.2ZM90.7342 14.8C90.7342 16.74 92.1342 17.8 93.6342 17.8C95.1342 17.8 96.5342 16.76 96.5342 14.8C96.5342 12.84 95.1342 11.8 93.6342 11.8C92.1342 11.8 90.7342 12.86 90.7342 14.8ZM123.915 20.2C121.495 20.2 118.915 18.4 118.915 14.8C118.915 11.2 121.495 9.4 123.915 9.4C125.775 9.4 126.975 10.42 127.235 11H127.295V9.6H129.975V20H127.295V18.6H127.235C126.975 19.18 125.775 20.2 123.915 20.2ZM121.555 14.8C121.555 16.74 122.955 17.8 124.455 17.8C125.955 17.8 127.355 16.76 127.355 14.8C127.355 12.84 125.955 11.8 124.455 11.8C122.955 11.8 121.555 12.86 121.555 14.8ZM136.032 20.12C134.272 20.12 132.992 19.26 132.992 17.12V11.74H131.512V9.6H132.992V6.94H135.692V9.6H137.832V11.74H135.692V16.68C135.692 17.22 135.992 17.74 136.872 17.74C137.112 17.74 137.472 17.7 137.852 17.58V19.64C137.452 20 136.692 20.12 136.032 20.12ZM143.875 20.2C141.455 20.2 138.875 18.4 138.875 14.8C138.875 11.2 141.455 9.4 143.875 9.4C145.735 9.4 146.935 10.42 147.195 11H147.255V9.6H149.935V20H147.255V18.6H147.195C146.935 19.18 145.735 20.2 143.875 20.2ZM141.515 14.8C141.515 16.74 142.915 17.8 144.415 17.8C145.915 17.8 147.315 16.76 147.315 14.8C147.315 12.84 145.915 11.8 144.415 11.8C142.915 11.8 141.515 12.86 141.515 14.8ZM151.973 20V5.8H154.653V20H151.973ZM161.68 20.2C158.96 20.2 156.2 18.32 156.2 14.8C156.2 11.28 158.96 9.4 161.68 9.4C164.38 9.4 167.16 11.28 167.16 14.8C167.16 18.32 164.38 20.2 161.68 20.2ZM158.84 14.8C158.84 16.66 160.18 17.78 161.68 17.78C163.18 17.78 164.5 16.66 164.5 14.8C164.5 12.94 163.18 11.82 161.68 11.82C160.18 11.82 158.84 12.94 158.84 14.8ZM173.772 24.16C172.572 24.16 171.372 23.92 170.752 23.52V21.34C171.232 21.66 172.272 21.92 173.292 21.92C175.292 21.92 176.572 20.98 176.572 19.4V18.6H176.452C176.192 19.18 175.032 20.2 173.192 20.2C170.792 20.2 168.192 18.4 168.192 14.8C168.192 11.2 170.792 9.4 173.192 9.4C175.032 9.4 176.192 10.42 176.452 11H176.572V9.6H179.252V19.22C179.252 23.2 176.132 24.16 173.772 24.16ZM170.832 14.8C170.832 16.74 172.232 17.8 173.732 17.8C175.252 17.8 176.632 16.76 176.632 14.8C176.632 12.84 175.252 11.8 173.732 11.8C172.232 11.8 170.832 12.86 170.832 14.8Z" fill="black"/>
<path d="M112.433 20.2C108.433 20.2 105.113 17.32 105.113 12.9C105.113 8.48 108.453 5.6 112.433 5.6C114.373 5.6 116.693 6.28 118.193 8.68L116.193 10.06C115.273 8.74 113.893 8.2 112.513 8.2C109.993 8.2 107.913 10.02 107.913 12.9C107.913 15.8 110.013 17.6 112.533 17.6C113.953 17.6 115.273 17.06 116.193 15.74L118.193 17.12C116.693 19.52 114.373 20.2 112.433 20.2Z" fill="#150578"/>
</svg>
